<svg width="24" height="24" viewBox="0 0 24 24" fill="none" xmlns="http://www.w3.org/2000/svg">
<mask id="mask0_3_31" style="mask-type:alpha" maskUnits="userSpaceOnUse" x="0" y="0" width="24" height="24">
<rect width="24" height="24" fill="#D9D9D9"/>
</mask>
<g mask="url(#mask0_3_31)">
<path d="M11.35 12.6501H7.14998C6.96582 12.6501 6.81148 12.5883 6.68699 12.4646C6.56232 12.341 6.49998 12.1878 6.49998 12.0051C6.49998 11.8223 6.56232 11.6675 6.68699 11.5406C6.81148 11.4136 6.96582 11.3501 7.14998 11.3501H11.35V7.15012C11.35 6.96596 11.4118 6.81162 11.5355 6.68712C11.6592 6.56245 11.8123 6.50012 11.995 6.50012C12.1778 6.50012 12.3327 6.56245 12.4595 6.68712C12.5865 6.81162 12.65 6.96596 12.65 7.15012V11.3501H16.85C17.0342 11.3501 17.1885 11.412 17.313 11.5356C17.4376 11.6593 17.5 11.8125 17.5 11.9951C17.5 12.178 17.4376 12.3328 17.313 12.4596C17.1885 12.5866 17.0342 12.6501 16.85 12.6501H12.65V16.8501C12.65 17.0343 12.5882 17.1886 12.4645 17.3131C12.3408 17.4378 12.1877 17.5001 12.005 17.5001C11.8222 17.5001 11.6673 17.4378 11.5405 17.3131C11.4135 17.1886 11.35 17.0343 11.35 16.8501V12.6501Z" fill="#1C1B1F"/>
</g>
</svg>
