<svg width="18" height="18" viewBox="0 0 18 18" fill="none" xmlns="http://www.w3.org/2000/svg">
<mask id="mask0_3_815" style="mask-type:alpha" maskUnits="userSpaceOnUse" x="0" y="0" width="18" height="18">
<rect width="18" height="18" fill="#D9D9D9"/>
</mask>
<g mask="url(#mask0_3_815)">
<path d="M10.2418 9.13978L12.3966 7.68591C12.5976 7.55041 12.6981 7.36341 12.6981 7.12491C12.6981 6.88641 12.5976 6.69941 12.3966 6.56391L10.2418 5.11003C10.0158 4.94941 9.78363 4.93691 9.54525 5.07253C9.30675 5.20816 9.1875 5.41153 9.1875 5.68266V8.56716C9.1875 8.83828 9.30675 9.04166 9.54525 9.17728C9.78363 9.31291 10.0158 9.30041 10.2418 9.13978ZM6.80775 12.548C6.42888 12.548 6.10819 12.4167 5.84569 12.1542C5.58319 11.8917 5.45194 11.571 5.45194 11.1922V3.23072C5.45194 2.85185 5.58319 2.53116 5.84569 2.26866C6.10819 2.00616 6.42888 1.87491 6.80775 1.87491H14.7692C15.1481 1.87491 15.4688 2.00616 15.7313 2.26866C15.9938 2.53116 16.125 2.85185 16.125 3.23072V11.1922C16.125 11.571 15.9938 11.8917 15.7313 12.1542C15.4688 12.4167 15.1481 12.548 14.7692 12.548H6.80775ZM6.80775 11.423H14.7692C14.8366 11.423 14.8919 11.4013 14.9351 11.3581C14.9784 11.3148 15 11.2595 15 11.1922V3.23072C15 3.16335 14.9784 3.10803 14.9351 3.06478C14.8919 3.02153 14.8366 2.99991 14.7692 2.99991H6.80775C6.74038 2.99991 6.68506 3.02153 6.64181 3.06478C6.59856 3.10803 6.57694 3.16335 6.57694 3.23072V11.1922C6.57694 11.2595 6.59856 11.3148 6.64181 11.3581C6.68506 11.4013 6.74038 11.423 6.80775 11.423ZM4.45538 16.0094C4.08125 16.0547 3.74544 15.9643 3.44794 15.7383C3.15031 15.5124 2.97888 15.2124 2.93363 14.8383L1.97606 7.09903C1.93081 6.72491 2.02625 6.3886 2.26238 6.0901C2.49838 5.79147 2.80338 5.61816 3.17738 5.57016L3.35925 5.56285C3.51875 5.53985 3.66125 5.58291 3.78675 5.69203C3.91225 5.80116 3.975 5.94178 3.975 6.11391C3.975 6.25328 3.92619 6.3761 3.82856 6.48235C3.73106 6.5886 3.61256 6.65328 3.47306 6.67641L3.31725 6.68353C3.25 6.68841 3.19713 6.71603 3.15863 6.76641C3.12013 6.81691 3.10569 6.87585 3.11531 6.94322L4.07025 14.6941C4.07988 14.7615 4.10869 14.8143 4.15669 14.8527C4.20481 14.8912 4.2625 14.9057 4.32975 14.896L13.1886 13.8014C13.3481 13.7812 13.4886 13.8179 13.6103 13.9117C13.732 14.0054 13.8029 14.1321 13.8231 14.2917C13.8433 14.4513 13.8066 14.5888 13.7128 14.7042C13.6191 14.8196 13.4924 14.8874 13.3328 14.9077L4.45538 16.0094Z" fill="#1C1B1F"/>
</g>
</svg>
