<svg width="18" height="18" viewBox="0 0 18 18" fill="none" xmlns="http://www.w3.org/2000/svg">
<mask id="mask0_3_821" style="mask-type:alpha" maskUnits="userSpaceOnUse" x="0" y="0" width="18" height="18">
<rect width="18" height="18" fill="#D9D9D9"/>
</mask>
<g mask="url(#mask0_3_821)">
<path d="M3.35195 9.01174L6.39526 12.0549C6.49901 12.1587 6.55213 12.2893 6.55463 12.4465C6.55701 12.6037 6.50388 12.7366 6.39526 12.8454C6.28651 12.954 6.15476 13.0083 6.00001 13.0083C5.84526 13.0083 5.71351 12.954 5.60476 12.8454L2.23407 9.47467C2.16395 9.40442 2.11445 9.33036 2.08557 9.25249C2.0567 9.17461 2.04226 9.09049 2.04226 9.00011C2.04226 8.90974 2.0567 8.82561 2.08557 8.74774C2.11445 8.66986 2.16395 8.5958 2.23407 8.52555L5.60476 5.15486C5.71638 5.04336 5.84888 4.98642 6.00226 4.98405C6.15551 4.98167 6.29032 5.03861 6.4067 5.15486C6.52307 5.27124 6.58126 5.40492 6.58126 5.55592C6.58126 5.7068 6.52307 5.84042 6.4067 5.9568L3.35195 9.01174ZM14.6481 8.98849L11.6048 5.94536C11.501 5.84149 11.4479 5.71092 11.4454 5.55367C11.443 5.39655 11.4961 5.26361 11.6048 5.15486C11.7135 5.04624 11.8453 4.99192 12 4.99192C12.1548 4.99192 12.2865 5.04624 12.3953 5.15486L15.7659 8.52555C15.8361 8.5958 15.8856 8.66986 15.9144 8.74774C15.9433 8.82561 15.9578 8.90974 15.9578 9.00011C15.9578 9.09049 15.9433 9.17461 15.9144 9.25249C15.8856 9.33036 15.8361 9.40442 15.7659 9.47467L12.3953 12.8454C12.2836 12.9569 12.1531 13.0119 12.0036 13.0104C11.8541 13.009 11.7211 12.9501 11.6048 12.8337C11.4885 12.7174 11.4304 12.5837 11.4304 12.4329C11.4304 12.2819 11.4885 12.1482 11.6048 12.0318L14.6481 8.98849Z" fill="#1C1B1F"/>
</g>
</svg>
