<svg width="20" height="20" viewBox="0 0 20 20" fill="none" xmlns="http://www.w3.org/2000/svg">
<mask id="mask0_3_152" style="mask-type:alpha" maskUnits="userSpaceOnUse" x="0" y="0" width="20" height="20">
<rect width="20" height="20" fill="#D9D9D9"/>
</mask>
<g mask="url(#mask0_3_152)">
<path d="M3.72437 10.0129L7.10583 13.3942C7.22111 13.5096 7.28014 13.6547 7.28292 13.8294C7.28555 14.004 7.22653 14.1517 7.10583 14.2725C6.985 14.3932 6.83861 14.4535 6.66667 14.4535C6.49472 14.4535 6.34833 14.3932 6.2275 14.2725L2.48229 10.5273C2.40437 10.4492 2.34937 10.3669 2.31729 10.2804C2.28521 10.1939 2.26917 10.1004 2.26917 10C2.26917 9.89958 2.28521 9.80611 2.31729 9.71958C2.34937 9.63305 2.40437 9.55076 2.48229 9.47271L6.2275 5.7275C6.35153 5.60361 6.49875 5.54035 6.66917 5.53771C6.83944 5.53507 6.98923 5.59833 7.11854 5.7275C7.24785 5.8568 7.3125 6.00535 7.3125 6.17312C7.3125 6.34076 7.24785 6.48924 7.11854 6.61854L3.72437 10.0129ZM16.2756 9.98708L12.8942 6.60583C12.7789 6.49042 12.7199 6.34535 12.7171 6.17062C12.7144 5.99604 12.7735 5.84833 12.8942 5.7275C13.015 5.6068 13.1614 5.54646 13.3333 5.54646C13.5053 5.54646 13.6517 5.6068 13.7725 5.7275L17.5177 9.47271C17.5956 9.55076 17.6506 9.63305 17.6827 9.71958C17.7148 9.80611 17.7308 9.89958 17.7308 10C17.7308 10.1004 17.7148 10.1939 17.6827 10.2804C17.6506 10.3669 17.5956 10.4492 17.5177 10.5273L13.7725 14.2725C13.6485 14.3964 13.5034 14.4575 13.3373 14.4558C13.1712 14.4543 13.0235 14.3889 12.8942 14.2596C12.765 14.1303 12.7004 13.9818 12.7004 13.8142C12.7004 13.6464 12.765 13.4978 12.8942 13.3685L16.2756 9.98708Z" fill="#9A97A3"/>
</g>
</svg>
