<svg width="24" height="24" viewBox="0 0 24 24" fill="none" xmlns="http://www.w3.org/2000/svg">
<mask id="mask0_3_55" style="mask-type:alpha" maskUnits="userSpaceOnUse" x="0" y="0" width="24" height="24">
<rect width="24" height="24" fill="#D9D9D9"/>
</mask>
<g mask="url(#mask0_3_55)">
<path d="M8.99472 18.8152C8.60405 18.8152 8.27138 18.6762 7.99672 18.398C7.72205 18.1198 7.58472 17.7854 7.58472 17.3947C7.58472 17.0041 7.7238 16.6714 8.00197 16.3967C8.28013 16.1221 8.61455 15.9847 9.00522 15.9847C9.39588 15.9847 9.72855 16.1238 10.0032 16.402C10.2779 16.6802 10.4152 17.0146 10.4152 17.4052C10.4152 17.7959 10.2761 18.1286 9.99797 18.4032C9.7198 18.6779 9.38538 18.8152 8.99472 18.8152ZM14.9947 18.8152C14.604 18.8152 14.2714 18.6762 13.9967 18.398C13.722 18.1198 13.5847 17.7854 13.5847 17.3947C13.5847 17.0041 13.7238 16.6714 14.002 16.3967C14.2801 16.1221 14.6146 15.9847 15.0052 15.9847C15.3959 15.9847 15.7285 16.1238 16.0032 16.402C16.2779 16.6802 16.4152 17.0146 16.4152 17.4052C16.4152 17.7959 16.2761 18.1286 15.998 18.4032C15.7198 18.6779 15.3854 18.8152 14.9947 18.8152ZM8.99472 13.4152C8.60405 13.4152 8.27138 13.2762 7.99672 12.998C7.72205 12.7198 7.58472 12.3854 7.58472 11.9948C7.58472 11.6041 7.7238 11.2714 8.00197 10.9968C8.28013 10.7221 8.61455 10.5848 9.00522 10.5848C9.39588 10.5848 9.72855 10.7238 10.0032 11.002C10.2779 11.2802 10.4152 11.6146 10.4152 12.0052C10.4152 12.3959 10.2761 12.7286 9.99797 13.0032C9.7198 13.2779 9.38538 13.4152 8.99472 13.4152ZM14.9947 13.4152C14.604 13.4152 14.2714 13.2762 13.9967 12.998C13.722 12.7198 13.5847 12.3854 13.5847 11.9948C13.5847 11.6041 13.7238 11.2714 14.002 10.9968C14.2801 10.7221 14.6146 10.5848 15.0052 10.5848C15.3959 10.5848 15.7285 10.7238 16.0032 11.002C16.2779 11.2802 16.4152 11.6146 16.4152 12.0052C16.4152 12.3959 16.2761 12.7286 15.998 13.0032C15.7198 13.2779 15.3854 13.4152 14.9947 13.4152ZM8.99472 8.01525C8.60405 8.01525 8.27138 7.87617 7.99672 7.598C7.72205 7.31984 7.58472 6.98542 7.58472 6.59475C7.58472 6.20409 7.7238 5.87142 8.00197 5.59675C8.28013 5.32209 8.61455 5.18475 9.00522 5.18475C9.39588 5.18475 9.72855 5.32384 10.0032 5.602C10.2779 5.88017 10.4152 6.21459 10.4152 6.60525C10.4152 6.99592 10.2761 7.32859 9.99797 7.60325C9.7198 7.87792 9.38538 8.01525 8.99472 8.01525ZM14.9947 8.01525C14.604 8.01525 14.2714 7.87617 13.9967 7.598C13.722 7.31984 13.5847 6.98542 13.5847 6.59475C13.5847 6.20409 13.7238 5.87142 14.002 5.59675C14.2801 5.32209 14.6146 5.18475 15.0052 5.18475C15.3959 5.18475 15.7285 5.32384 16.0032 5.602C16.2779 5.88017 16.4152 6.21459 16.4152 6.60525C16.4152 6.99592 16.2761 7.32859 15.998 7.60325C15.7198 7.87792 15.3854 8.01525 14.9947 8.01525Z" fill="#1C1B1F"/>
</g>
</svg>
