<svg width="20" height="20" viewBox="0 0 20 20" fill="none" xmlns="http://www.w3.org/2000/svg">
<mask id="mask0_1_2207" style="mask-type:alpha" maskUnits="userSpaceOnUse" x="0" y="0" width="20" height="20">
<rect width="20" height="20" fill="#D9D9D9"/>
</mask>
<g mask="url(#mask0_1_2207)">
<path d="M5.08008 16.7705C4.90299 16.7705 4.75452 16.7106 4.63466 16.5907C4.51494 16.4708 4.45508 16.3223 4.45508 16.1451C4.45508 15.968 4.51494 15.8196 4.63466 15.6999C4.75452 15.5803 4.90299 15.5205 5.08008 15.5205H14.9197C15.0967 15.5205 15.2452 15.5804 15.3651 15.7003C15.4848 15.8201 15.5447 15.9686 15.5447 16.1457C15.5447 16.3229 15.4848 16.4713 15.3651 16.5909C15.2452 16.7106 15.0967 16.7705 14.9197 16.7705H5.08008ZM9.99987 13.7736C8.7039 13.7736 7.69244 13.3802 6.96549 12.5934C6.23841 11.8066 5.87487 10.7524 5.87487 9.4307V3.61028C5.87487 3.4 5.95244 3.21972 6.10758 3.06945C6.26272 2.91931 6.44543 2.84424 6.6557 2.84424C6.86584 2.84424 7.0457 2.91931 7.19529 3.06945C7.34487 3.21972 7.41966 3.4 7.41966 3.61028V9.50757C7.41966 10.3495 7.64348 11.0242 8.09112 11.5317C8.53876 12.0392 9.17501 12.293 9.99987 12.293C10.8247 12.293 11.461 12.0392 11.9086 11.5317C12.3563 11.0242 12.5801 10.3495 12.5801 9.50757V3.61028C12.5801 3.4 12.6576 3.21972 12.8128 3.06945C12.9679 2.91931 13.1506 2.84424 13.3609 2.84424C13.571 2.84424 13.7509 2.91931 13.9005 3.06945C14.0501 3.21972 14.1249 3.4 14.1249 3.61028V9.4307C14.1249 10.7524 13.7613 11.8066 13.0342 12.5934C12.3073 13.3802 11.2958 13.7736 9.99987 13.7736Z" fill="#9A97A3"/>
</g>
</svg>
