<svg width="20" height="20" viewBox="0 0 20 20" fill="none" xmlns="http://www.w3.org/2000/svg">
<mask id="mask0_1_2195" style="mask-type:alpha" maskUnits="userSpaceOnUse" x="0" y="0" width="20" height="20">
<rect width="20" height="20" fill="#D9D9D9"/>
</mask>
<g mask="url(#mask0_1_2195)">
<path d="M5.24727 15.5212C5.03643 15.5212 4.85817 15.4483 4.71247 15.3026C4.56692 15.1568 4.49414 14.9783 4.49414 14.7672C4.49414 14.5562 4.56692 14.378 4.71247 14.2326C4.85817 14.0873 5.03643 14.0147 5.24727 14.0147H7.67518L10.3756 5.98595H7.94768C7.73685 5.98595 7.55858 5.91303 7.41289 5.7672C7.26733 5.62151 7.19456 5.4431 7.19456 5.23199C7.19456 5.02088 7.26733 4.84269 7.41289 4.69741C7.55858 4.55213 7.73685 4.47949 7.94768 4.47949H14.0696C14.2804 4.47949 14.4586 4.55234 14.6041 4.69803C14.7498 4.84387 14.8227 5.02234 14.8227 5.23345C14.8227 5.44442 14.7498 5.62262 14.6041 5.76803C14.4586 5.91331 14.2804 5.98595 14.0696 5.98595H11.8979L9.19768 14.0147H11.3691C11.58 14.0147 11.7582 14.0876 11.9039 14.2335C12.0495 14.3791 12.1223 14.5575 12.1223 14.7687C12.1223 14.9798 12.0495 15.158 11.9039 15.3032C11.7582 15.4485 11.58 15.5212 11.3691 15.5212H5.24727Z" fill="#9A97A3"/>
</g>
</svg>
