<svg width="20" height="20" viewBox="0 0 20 20" fill="none" xmlns="http://www.w3.org/2000/svg">
<mask id="mask0_3_138" style="mask-type:alpha" maskUnits="userSpaceOnUse" x="0" y="0" width="20" height="20">
<rect width="20" height="20" fill="#D9D9D9"/>
</mask>
<g mask="url(#mask0_3_138)">
<path d="M2.91669 20C2.57585 20 2.28231 19.8782 2.03606 19.6346C1.78981 19.391 1.66669 19.0961 1.66669 18.75C1.66669 18.4092 1.78981 18.1156 2.03606 17.8694C2.28231 17.6231 2.57585 17.5 2.91669 17.5H17.0834C17.4242 17.5 17.7177 17.6218 17.964 17.8654C18.2102 18.109 18.3334 18.4039 18.3334 18.75C18.3334 19.0908 18.2102 19.3844 17.964 19.6306C17.7177 19.8769 17.4242 20 17.0834 20H2.91669ZM11.9184 10.1202L9.75169 7.95354L6.46627 11.2387C6.41821 11.2868 6.39419 11.3456 6.39419 11.415C6.39419 11.4844 6.41821 11.5433 6.46627 11.5915L8.26752 13.4054C8.31571 13.4535 8.37453 13.4775 8.44398 13.4775C8.51342 13.4775 8.57217 13.4535 8.62023 13.4054L11.9184 10.1202ZM10.6425 7.07541L12.7965 9.22916L16.3542 5.68437C16.4022 5.63632 16.4263 5.57486 16.4263 5.5C16.4263 5.42514 16.4022 5.36368 16.3542 5.31562L14.5561 3.51771C14.508 3.46965 14.4466 3.44562 14.3719 3.44562C14.297 3.44562 14.2356 3.46965 14.1875 3.51771L10.6425 7.07541ZM9.32523 6.62354L13.2484 10.5465L9.51127 14.2965C9.20988 14.5977 8.8562 14.7483 8.45023 14.7483C8.04426 14.7483 7.69065 14.5977 7.3894 14.2965L7.30919 14.2162L6.97273 14.54C6.83592 14.6597 6.68127 14.7543 6.50877 14.8237C6.33627 14.8932 6.15815 14.9279 5.9744 14.9279H4.22606C4.05301 14.9279 3.93363 14.8512 3.86794 14.6979C3.8021 14.5446 3.83065 14.4065 3.95356 14.2837L5.67794 12.5721L5.61377 12.5081C5.31252 12.2067 5.15759 11.8488 5.14898 11.4344C5.14051 11.0198 5.2869 10.6619 5.58815 10.3606L9.32523 6.62354ZM9.32523 6.62354L13.3173 2.63146C13.6186 2.33021 13.9722 2.17958 14.3781 2.17958C14.7841 2.17958 15.1378 2.33021 15.4392 2.63146L17.2531 4.43271C17.5544 4.73396 17.705 5.08757 17.705 5.49354C17.705 5.89951 17.5544 6.25312 17.2531 6.55437L13.2484 10.5465L9.32523 6.62354Z" fill="#1C1B1F"/>
</g>
</svg>
