<svg width="20" height="20" viewBox="0 0 20 20" fill="none" xmlns="http://www.w3.org/2000/svg">
<mask id="mask0_1_2191" style="mask-type:alpha" maskUnits="userSpaceOnUse" x="0" y="0" width="20" height="20">
<rect width="20" height="20" fill="#D9D9D9"/>
</mask>
<g mask="url(#mask0_1_2191)">
<path d="M7.38097 15.5208C7.02944 15.5208 6.73055 15.3977 6.4843 15.1515C6.23805 14.9052 6.11493 14.6063 6.11493 14.2548V5.74521C6.11493 5.39369 6.23805 5.0948 6.4843 4.84855C6.73055 4.6023 7.02944 4.47917 7.38097 4.47917H10.1662C11.0155 4.47917 11.7834 4.74362 12.4699 5.27251C13.1563 5.80126 13.4995 6.51334 13.4995 7.40876C13.4995 8.03153 13.3491 8.53924 13.0483 8.93188C12.7476 9.32452 12.4236 9.60952 12.0764 9.78688C12.5037 9.93424 12.9119 10.2256 13.3008 10.661C13.6897 11.0965 13.8841 11.6827 13.8841 12.4198C13.8841 13.4849 13.4915 14.2681 12.7062 14.7692C11.9209 15.2703 11.1298 15.5208 10.3328 15.5208H7.38097ZM7.9066 13.8606H10.2656C10.9215 13.8606 11.3852 13.6785 11.6566 13.3142C11.928 12.9499 12.0637 12.6005 12.0637 12.266C12.0637 11.9316 11.928 11.5822 11.6566 11.2179C11.3852 10.8536 10.9087 10.6715 10.227 10.6715H7.9066V13.8606ZM7.9066 9.06251H10.0685C10.5749 9.06251 10.9763 8.91771 11.2728 8.62813C11.5692 8.33869 11.7174 7.99202 11.7174 7.58813C11.7174 7.15869 11.5607 6.80771 11.2472 6.53521C10.9336 6.26285 10.5492 6.12667 10.0941 6.12667H7.9066V9.06251Z" fill="#1D1919"/>
</g>
</svg>
