<svg width="12" height="12" viewBox="0 0 12 12" fill="none" xmlns="http://www.w3.org/2000/svg">
<path d="M4.42414 1.89676C4.74457 0.934079 6.04021 0.904924 6.42011 1.8093L6.45227 1.89731L6.88468 3.19556C6.98378 3.4933 7.14392 3.76575 7.3543 3.99455C7.56468 4.22334 7.82041 4.40316 8.10424 4.52187L8.22051 4.56643L9.48508 5.00981C10.4228 5.33877 10.4512 6.66893 9.57081 7.05895L9.48508 7.09196L8.22051 7.5359C7.93041 7.63757 7.66491 7.80194 7.44196 8.01793C7.219 8.23392 7.04377 8.49649 6.92808 8.78794L6.88468 8.90676L6.4528 10.2056C6.13237 11.1682 4.83673 11.1974 4.45736 10.2936L4.42414 10.2056L3.99225 8.90731C3.89322 8.60947 3.73311 8.33691 3.52273 8.10802C3.31234 7.87912 3.05658 7.69922 2.7727 7.58045L2.65696 7.5359L1.39239 7.09251C0.454148 6.76355 0.425749 5.43339 1.30666 5.04392L1.39239 5.00981L2.65696 4.56643C2.94697 4.46469 3.21236 4.30028 3.43522 4.0843C3.65808 3.86831 3.83323 3.60577 3.94885 3.31439L3.99225 3.19556L4.42414 1.89676ZM9.72513 9.93972e-08C9.82538 -1.2981e-07 9.92361 0.0288686 10.0087 0.0833253C10.0937 0.137782 10.1622 0.215643 10.2063 0.308059L10.232 0.372422L10.4196 0.93683L10.9699 1.12937C11.0703 1.16441 11.1584 1.22927 11.2229 1.31575C11.2874 1.40223 11.3255 1.50642 11.3322 1.61512C11.339 1.72382 11.3142 1.83214 11.2609 1.92635C11.2077 2.02056 11.1284 2.09642 11.0331 2.14431L10.9699 2.17072L10.4201 2.36325L10.2326 2.92821C10.1984 3.03132 10.1351 3.12168 10.0509 3.18786C9.96662 3.25403 9.86511 3.29304 9.75924 3.29993C9.65336 3.30682 9.54787 3.28129 9.45614 3.22658C9.3644 3.17186 9.29056 3.09042 9.24396 2.99257L9.21824 2.92821L9.03069 2.3638L8.48039 2.17127C8.37993 2.13623 8.29187 2.07136 8.22736 1.98488C8.16285 1.89841 8.12479 1.79421 8.11802 1.68551C8.11125 1.57681 8.13606 1.46849 8.18932 1.37428C8.24257 1.28007 8.32187 1.20421 8.41717 1.15632L8.48039 1.12992L9.03016 0.93738L9.2177 0.372422C9.25383 0.263735 9.32219 0.169382 9.41319 0.102594C9.50419 0.0358058 9.61327 -6.8918e-05 9.72513 9.93972e-08Z" fill="white"/>
</svg>
