<svg width="16" height="18" viewBox="0 0 16 18" fill="none" xmlns="http://www.w3.org/2000/svg">
<path d="M5.6362 2.84515C6.11684 1.40112 8.06031 1.35739 8.63017 2.71395L8.67839 2.84597L9.32702 4.79334C9.47566 5.23995 9.71587 5.64863 10.0314 5.99182C10.347 6.33502 10.7306 6.60474 11.1564 6.7828L11.3308 6.84964L13.2276 7.51472C14.6342 8.00816 14.6768 10.0034 13.3562 10.5884L13.2276 10.6379L11.3308 11.3038C10.8956 11.4563 10.4974 11.7029 10.1629 12.0269C9.8285 12.3509 9.56565 12.7447 9.39212 13.1819L9.32702 13.3601L8.67919 15.3083C8.19855 16.7524 6.25508 16.7961 5.68603 15.4404L5.6362 15.3083L4.98837 13.361C4.83983 12.9142 4.59966 12.5054 4.28408 12.162C3.9685 11.8187 3.58486 11.5488 3.15904 11.3707L2.98543 11.3038L1.08858 10.6388C-0.318785 10.1453 -0.361384 8.15009 0.959981 7.56588L1.08858 7.51472L2.98543 6.84964C3.42045 6.69703 3.81853 6.45042 4.15282 6.12645C4.4871 5.80247 4.74983 5.40866 4.92327 4.97158L4.98837 4.79334L5.6362 2.84515ZM13.5877 1.49096e-07C13.7381 -1.94714e-07 13.8854 0.0433029 14.013 0.124988C14.1406 0.206673 14.2433 0.323464 14.3095 0.462089L14.348 0.558632L14.6294 1.40524L15.4548 1.69405C15.6055 1.74661 15.7376 1.84391 15.8344 1.97363C15.9311 2.10334 15.9882 2.25963 15.9984 2.42268C16.0085 2.58574 15.9713 2.74822 15.8914 2.88953C15.8115 3.03084 15.6926 3.14463 15.5496 3.21647L15.4548 3.25607L14.6302 3.54488L14.3488 4.39232C14.2976 4.54698 14.2027 4.68252 14.0763 4.78179C13.9499 4.88105 13.7977 4.93956 13.6388 4.94989C13.48 4.96023 13.3218 4.92194 13.1842 4.83987C13.0466 4.75779 12.9358 4.63563 12.8659 4.48886L12.8273 4.39232L12.546 3.5457L11.7206 3.2569C11.5699 3.20434 11.4378 3.10704 11.341 2.97732C11.2443 2.84761 11.1872 2.69132 11.177 2.52827C11.1669 2.36521 11.2041 2.20273 11.284 2.06142C11.3639 1.92011 11.4828 1.80632 11.6257 1.73448L11.7206 1.69488L12.5452 1.40607L12.8265 0.558632C12.8807 0.395602 12.9833 0.254073 13.1198 0.153891C13.2563 0.0537087 13.4199 -0.000103377 13.5877 1.49096e-07Z" fill="#774AF8"/>
</svg>
