<svg width="18" height="18" viewBox="0 0 18 18" fill="none" xmlns="http://www.w3.org/2000/svg">
<mask id="mask0_3_809" style="mask-type:alpha" maskUnits="userSpaceOnUse" x="0" y="0" width="18" height="18">
<rect width="18" height="18" fill="#D9D9D9"/>
</mask>
<g mask="url(#mask0_3_809)">
<path d="M3.98081 15.3751C3.60194 15.3751 3.28125 15.2438 3.01875 14.9813C2.75625 14.7188 2.625 14.3982 2.625 14.0193V3.9809C2.625 3.60203 2.75625 3.28134 3.01875 3.01884C3.28125 2.75634 3.60194 2.62509 3.98081 2.62509H14.0192C14.3981 2.62509 14.7188 2.75634 14.9813 3.01884C15.2438 3.28134 15.375 3.60203 15.375 3.9809V14.0193C15.375 14.3982 15.2438 14.7188 14.9813 14.9813C14.7188 15.2438 14.3981 15.3751 14.0192 15.3751H3.98081ZM3.98081 14.2501H14.0192C14.0769 14.2501 14.1298 14.226 14.1778 14.1779C14.2259 14.1299 14.25 14.077 14.25 14.0193V3.9809C14.25 3.92315 14.2259 3.87028 14.1778 3.82228C14.1298 3.77415 14.0769 3.75009 14.0192 3.75009H3.98081C3.92306 3.75009 3.87019 3.77415 3.82219 3.82228C3.77406 3.87028 3.75 3.92315 3.75 3.9809V14.0193C3.75 14.077 3.77406 14.1299 3.82219 14.1779C3.87019 14.226 3.92306 14.2501 3.98081 14.2501ZM5.7405 12.5626H12.3173C12.4529 12.5626 12.5534 12.501 12.6188 12.3779C12.6841 12.2549 12.674 12.1357 12.5884 12.0203L10.8 9.62465C10.7298 9.53428 10.6394 9.48909 10.5289 9.48909C10.4183 9.48909 10.3279 9.53428 10.2578 9.62465L8.42306 12.0145L7.19419 10.4395C7.12406 10.3539 7.03488 10.3111 6.92663 10.3111C6.8185 10.3111 6.72931 10.3563 6.65906 10.4468L5.4765 12.0203C5.38613 12.1357 5.37363 12.2549 5.439 12.3779C5.50437 12.501 5.60488 12.5626 5.7405 12.5626Z" fill="#1C1B1F"/>
</g>
</svg>
