<svg width="20" height="20" viewBox="0 0 20 20" fill="none" xmlns="http://www.w3.org/2000/svg">
<mask id="mask0_3_93" style="mask-type:alpha" maskUnits="userSpaceOnUse" x="0" y="0" width="20" height="20">
<rect width="20" height="20" fill="#D9D9D9"/>
</mask>
<g mask="url(#mask0_3_93)">
<path d="M8.38081 15.625C8.20372 15.625 8.05525 15.5651 7.93539 15.4452C7.81567 15.3254 7.75581 15.1769 7.75581 14.9998C7.75581 14.8226 7.81567 14.6742 7.93539 14.5546C8.05525 14.4349 8.20372 14.375 8.38081 14.375H16.4577C16.6348 14.375 16.7832 14.4349 16.9029 14.5548C17.0228 14.6747 17.0827 14.8231 17.0827 15.0002C17.0827 15.1775 17.0228 15.3259 16.9029 15.4454C16.7832 15.5652 16.6348 15.625 16.4577 15.625H8.38081ZM8.38081 10.625C8.20372 10.625 8.05525 10.5651 7.93539 10.4452C7.81567 10.3254 7.75581 10.1769 7.75581 9.99981C7.75581 9.82259 7.81567 9.67419 7.93539 9.5546C8.05525 9.43488 8.20372 9.37502 8.38081 9.37502H16.4577C16.6348 9.37502 16.7832 9.43495 16.9029 9.55481C17.0228 9.67467 17.0827 9.82314 17.0827 10.0002C17.0827 10.1775 17.0228 10.3259 16.9029 10.4454C16.7832 10.5652 16.6348 10.625 16.4577 10.625H8.38081ZM8.38081 5.62502C8.20372 5.62502 8.05525 5.56509 7.93539 5.44523C7.81567 5.32537 7.75581 5.17689 7.75581 4.99981C7.75581 4.82259 7.81567 4.67419 7.93539 4.5546C8.05525 4.43488 8.20372 4.37502 8.38081 4.37502H16.4577C16.6348 4.37502 16.7832 4.43495 16.9029 4.55481C17.0228 4.67467 17.0827 4.82314 17.0827 5.00023C17.0827 5.17745 17.0228 5.32585 16.9029 5.44544C16.7832 5.56516 16.6348 5.62502 16.4577 5.62502H8.38081ZM4.30227 16.3863C3.92102 16.3863 3.5947 16.2505 3.32331 15.979C3.05178 15.7076 2.91602 15.3813 2.91602 15C2.91602 14.6188 3.05178 14.2924 3.32331 14.0211C3.5947 13.7495 3.92102 13.6138 4.30227 13.6138C4.68352 13.6138 5.00984 13.7495 5.28122 14.0211C5.55275 14.2924 5.68852 14.6188 5.68852 15C5.68852 15.3813 5.55275 15.7076 5.28122 15.979C5.00984 16.2505 4.68352 16.3863 4.30227 16.3863ZM4.30227 11.3863C3.92102 11.3863 3.5947 11.2505 3.32331 10.979C3.05178 10.7076 2.91602 10.3813 2.91602 10C2.91602 9.61877 3.05178 9.29245 3.32331 9.02106C3.5947 8.74953 3.92102 8.61377 4.30227 8.61377C4.68352 8.61377 5.00984 8.74953 5.28122 9.02106C5.55275 9.29245 5.68852 9.61877 5.68852 10C5.68852 10.3813 5.55275 10.7076 5.28122 10.979C5.00984 11.2505 4.68352 11.3863 4.30227 11.3863ZM4.30227 6.38627C3.92102 6.38627 3.5947 6.25051 3.32331 5.97898C3.05178 5.70759 2.91602 5.38127 2.91602 5.00002C2.91602 4.61877 3.05178 4.29245 3.32331 4.02106C3.5947 3.74953 3.92102 3.61377 4.30227 3.61377C4.68352 3.61377 5.00984 3.74953 5.28122 4.02106C5.55275 4.29245 5.68852 4.61877 5.68852 5.00002C5.68852 5.38127 5.55275 5.70759 5.28122 5.97898C5.00984 6.25051 4.68352 6.38627 4.30227 6.38627Z" fill="#1D1919" fill-opacity="0.4"/>
</g>
</svg>
