<svg width="20" height="20" viewBox="0 0 20 20" fill="none" xmlns="http://www.w3.org/2000/svg">
<mask id="mask0_3_89" style="mask-type:alpha" maskUnits="userSpaceOnUse" x="0" y="0" width="20" height="20">
<rect width="20" height="20" fill="#D9D9D9"/>
</mask>
<g mask="url(#mask0_3_89)">
<path d="M9.99585 12.5017C9.90654 12.5017 9.82349 12.4856 9.74668 12.4535C9.66988 12.4215 9.59939 12.3734 9.53522 12.3094L5.6721 8.44605C5.5521 8.32605 5.49418 8.19605 5.49835 8.05605C5.50265 7.91619 5.56515 7.78584 5.68585 7.665C5.80668 7.54431 5.93571 7.48396 6.07293 7.48396C6.21015 7.48396 6.33918 7.54431 6.46001 7.665L10 11.226L13.5608 7.665C13.6763 7.54973 13.804 7.49417 13.944 7.49834C14.0838 7.50264 14.2142 7.56514 14.335 7.68584C14.4557 7.80667 14.5161 7.9357 14.5161 8.07292C14.5161 8.21014 14.4533 8.34112 14.3279 8.46584L10.4648 12.3094C10.3951 12.3734 10.3218 12.4215 10.245 12.4535C10.1682 12.4856 10.0852 12.5017 9.99585 12.5017Z" fill="#1C1B1F" fill-opacity="0.4"/>
</g>
</svg>
