<svg width="20" height="20" viewBox="0 0 20 20" fill="none" xmlns="http://www.w3.org/2000/svg">
<mask id="mask0_3_127" style="mask-type:alpha" maskUnits="userSpaceOnUse" x="0" y="0" width="20" height="20">
<rect width="20" height="20" fill="#D9D9D9"/>
</mask>
<g mask="url(#mask0_3_127)">
<path d="M10.125 16.4102C9.29278 16.4102 8.52382 16.1896 7.81812 15.7483C7.11243 15.3071 6.55771 14.7163 6.15396 13.976C6.06632 13.8126 6.05562 13.6413 6.12187 13.4623C6.18813 13.2834 6.30722 13.1501 6.47917 13.0625C6.65972 12.9664 6.84799 12.9515 7.04396 13.0177C7.24007 13.084 7.39312 13.2074 7.50312 13.3879C7.77993 13.8686 8.15285 14.25 8.62188 14.5321C9.09076 14.8142 9.60035 14.9552 10.1506 14.9552C10.8419 14.9552 11.4479 14.7517 11.9688 14.3446C12.4896 13.9375 12.75 13.4103 12.75 12.7629C12.75 12.6721 12.742 12.5812 12.726 12.4904C12.7099 12.3996 12.6778 12.3141 12.6298 12.234C12.6138 12.0363 12.671 11.8643 12.8013 11.7179C12.9317 11.5715 13.0957 11.4903 13.2933 11.4744C13.491 11.4583 13.6664 11.5154 13.8196 11.6458C13.9729 11.7761 14.0576 11.9401 14.0737 12.1377C14.1325 12.2542 14.1712 12.3801 14.1898 12.5152C14.2085 12.6503 14.2179 12.7842 14.2179 12.9167C14.2179 13.9444 13.8066 14.7837 12.984 15.4344C12.1613 16.0849 11.2083 16.4102 10.125 16.4102ZM2.5 9.79166C2.32264 9.79166 2.17417 9.7318 2.05458 9.61208C1.93486 9.4925 1.875 9.34403 1.875 9.16666C1.875 8.9893 1.93486 8.84083 2.05458 8.72125C2.17417 8.60152 2.32264 8.54166 2.5 8.54166H17.5C17.6774 8.54166 17.8258 8.60152 17.9454 8.72125C18.0651 8.84083 18.125 8.9893 18.125 9.16666C18.125 9.34403 18.0651 9.4925 17.9454 9.61208C17.8258 9.7318 17.6774 9.79166 17.5 9.79166H2.5ZM6.87333 6.81083C6.69597 6.72541 6.57097 6.58868 6.49833 6.40062C6.42569 6.21257 6.43215 6.02993 6.51771 5.85271C6.72063 5.11979 7.15514 4.54389 7.82125 4.125C8.48736 3.70625 9.2275 3.49687 10.0417 3.49687C10.671 3.49687 11.2634 3.62909 11.819 3.89354C12.3745 4.15784 12.8403 4.53791 13.2162 5.03375C13.3264 5.18 13.363 5.34479 13.326 5.52812C13.2892 5.71132 13.1934 5.85791 13.0385 5.96791C12.8665 6.08653 12.6824 6.13035 12.4865 6.09937C12.2903 6.0684 12.1218 5.97118 11.9808 5.80771C11.7457 5.51812 11.4626 5.30312 11.1315 5.16271C10.8002 5.02215 10.4455 4.95187 10.0673 4.95187C9.54813 4.95187 9.07347 5.08305 8.64333 5.34541C8.21333 5.60764 7.94278 5.97326 7.83167 6.44229C7.74625 6.62826 7.60951 6.75757 7.42146 6.83021C7.2334 6.90284 7.05069 6.89639 6.87333 6.81083Z" fill="#9A97A3"/>
</g>
</svg>
