<svg width="18" height="18" viewBox="0 0 18 18" fill="none" xmlns="http://www.w3.org/2000/svg">
<mask id="mask0_3_682" style="mask-type:alpha" maskUnits="userSpaceOnUse" x="0" y="0" width="18" height="18">
<rect width="18" height="18" fill="#D9D9D9"/>
</mask>
<g mask="url(#mask0_3_682)">
<path d="M2.09375 14V4.10156H3.32422V8.50391H8.56055V4.10156H9.80469V14H8.56055V9.58398H3.32422V14H2.09375Z" fill="black"/>
<path d="M11.5977 14L11.5889 13.4199L13.7598 11.1348C14.5156 10.335 14.876 9.9043 14.876 9.31543C14.876 8.66504 14.3223 8.23438 13.6104 8.23438C12.8545 8.23438 12.3711 8.71777 12.3711 9.42969H11.624C11.6152 8.30469 12.4854 7.54883 13.6367 7.54883C14.7881 7.54883 15.6143 8.32227 15.6143 9.31543C15.6143 10.0273 15.2803 10.5811 14.1553 11.7412L12.6963 13.2441V13.2969H15.7285V14H11.5977Z" fill="black"/>
</g>
</svg>
