<svg width="18" height="18" viewBox="0 0 18 18" fill="none" xmlns="http://www.w3.org/2000/svg">
<mask id="mask0_3_182" style="mask-type:alpha" maskUnits="userSpaceOnUse" x="0" y="0" width="18" height="18">
<rect width="18" height="18" fill="#D9D9D9"/>
</mask>
<g mask="url(#mask0_3_182)">
<path d="M8.20667 4.96875H4.92542C4.70504 4.96875 4.51779 4.89156 4.36367 4.73719C4.20942 4.58269 4.13229 4.39519 4.13229 4.17469C4.13229 3.95406 4.20942 3.76562 4.36367 3.60938C4.51779 3.45312 4.70504 3.375 4.92542 3.375H13.0817C13.302 3.375 13.4894 3.45219 13.6436 3.60656C13.7979 3.76106 13.875 3.94856 13.875 4.16906C13.875 4.38969 13.7979 4.57812 13.6436 4.73438C13.4894 4.89062 13.302 4.96875 13.0817 4.96875H9.80042V13.8317C9.80042 14.0521 9.72323 14.2394 9.56886 14.3936C9.41448 14.5479 9.22698 14.625 9.00636 14.625C8.78573 14.625 8.59729 14.5472 8.44104 14.3916C8.28479 14.2359 8.20667 14.0469 8.20667 13.8246V4.96875Z" fill="#1C1B1F"/>
</g>
</svg>
