<svg width="18" height="18" viewBox="0 0 18 18" fill="none" xmlns="http://www.w3.org/2000/svg">
<mask id="mask0_3_692" style="mask-type:alpha" maskUnits="userSpaceOnUse" x="0" y="0" width="18" height="18">
<rect width="18" height="18" fill="#D9D9D9"/>
</mask>
<g mask="url(#mask0_3_692)">
<path d="M2.09375 14V4.10156H3.32422V8.50391H8.56055V4.10156H9.80469V14H8.56055V9.58398H3.32422V14H2.09375Z" fill="black"/>
<path d="M13.7949 14.0879C12.5293 14.0879 11.624 13.4111 11.5801 12.4004H12.3799C12.4238 13.0068 13.0303 13.3848 13.7861 13.3848C14.6211 13.3848 15.2363 12.9277 15.2363 12.2686C15.2363 11.5742 14.6826 11.082 13.6895 11.082H13.1709V10.3877H13.6895C14.4629 10.3877 14.999 9.95703 14.999 9.29785C14.999 8.66504 14.5332 8.23438 13.8125 8.23438C13.1357 8.23438 12.5117 8.6123 12.4766 9.23633H11.7119C11.7559 8.22559 12.6875 7.54883 13.8213 7.54883C15.0342 7.54883 15.7725 8.33984 15.7637 9.25391C15.7725 9.97461 15.3506 10.5107 14.6826 10.6953V10.7393C15.5088 10.8711 16.0186 11.46 16.0098 12.2686C16.0186 13.3145 15.0605 14.0879 13.7949 14.0879Z" fill="black"/>
</g>
</svg>
